# xmcd
#
# Track frame offsets:
#	150
#	19596
#	47196
#	67988
#	97596
#	110578
#	130812
#	155328
#	168982
#	187767
#	211576
#	241419
#	265110
#
# Disc length: 3841 seconds
#
# Revision: 3
# Processed by: cddbd v1.5.2PL0 Copyright (c) Steve Scherf et al.
# Submitted via: EasyCDDAExtractor 15.1.0.1
#
DISCID=9a0eff0d
DTITLE=Elias Silva - Escolhido Por Deus
DYEAR=2007
DGENRE=Gospel
TTITLE0=Nao Se Conforme Com A Derrota
TTITLE1=Chuva De Bencao
TTITLE2=A Gloria Do Senhor
TTITLE3=A Mao De Deus
TTITLE4=Escolhido Por Deus
TTITLE5=Espelho Da Vida
TTITLE6=Verdadeiro Adorador
TTITLE7=Cativeiro Nunca Mais
TTITLE8=Minha Chamada
TTITLE9=Furia Do Vento
TTITLE10=Sede De Deus
TTITLE11=Tuas Maos Me Tocarem
TTITLE12=Voarao Como Aguias
EXTD=by 107,5 FM\nwww.1075fm.com.br
EXTT0=
EXTT1=
EXTT2=
EXTT3=
EXTT4=
EXTT5=
EXTT6=
EXTT7=
EXTT8=
EXTT9=
EXTT10=
EXTT11=
EXTT12=
PLAYORDER=
